<svg xmlns="http://www.w3.org/2000/svg" viewBox="0 0 750 1050">
    <style>
        #ci-chicken-5 .ci-breath path,
        #ci-chicken-5 .ci-breath ellipse {
            animation: ci-breath 0.4s infinite ease-in-out alternate;
        }

        #ci-chicken-5 .ci-wing path {
            animation: ci-wing 3.2s infinite ease-in-out;
            transform-origin: 341.3px;
        }

        @keyframes ci-breath {
            0% {
                transform: translateY(0);
            }

            100% {
                transform: translateY(4.5px);
            }
        }

        @keyframes ci-wing {
            0% {
                transform: translateY(0);
            }

            5% {
                transform: translateY(1.8px)rotate(-2deg);
            }

            12.5% {
                transform: translateY(4.5px)rotate(1deg);
            }

            15% {
                transform: translateY(3.6px)rotate(2deg);
            }

            25% {
                transform: translateY(0)rotate(-2deg);
            }

            35% {
                transform: translateY(3.6px)rotate(2deg);
            }

            37.5% {
                transform: translateY(4.5px)rotate(1deg);
            }

            40% {
                transform: translateY(3.6px);
            }

            50% {
                transform: translateY(0);
            }

            62.5% {
                transform: translateY(4.5px);
            }

            75% {
                transform: translateY(0);
            }

            87.5% {
                transform: translateY(4.5px);
            }

            100% {
                transform: translateY(0);
            }
        }
    </style>
    <defs>
        <linearGradient id="cb-egg-5-card-diagonal-gradient" y1="100%" gradientUnits="userSpaceOnUse">
            <stop offset="0" stop-color="#ea394e" />
            <stop offset="1" stop-color="#9d34e8" />
        </linearGradient>
    </defs>
    <g id="ci-chicken-5">
        <rect style="fill:#fff" width="100%" height="100%" rx="37.5" />
        <rect style="fill:url(#cb-egg-5-card-diagonal-gradient)" x="30" y="30" width="690" height="990" rx="37.5" />
        <text y="14%" font-size="72px" fill="#fff" font-family="Arial Black, Arial" font-weight="800"
            text-anchor="middle" x="50%">LUSD</text><text y="19%" font-size="30px" fill="#fff"
            font-family="Arial Black, Arial" font-weight="800" text-anchor="middle" x="50%">ID: 5</text><text y="72%"
            font-size="40px" fill="#fff" font-family="Arial Black, Arial" font-weight="800" text-anchor="middle"
            x="50%">CHICKEN IN</text><text y="81%" font-size="64px" fill="#fff" font-family="Arial Black, Arial"
            font-weight="800" text-anchor="middle" x="50%">10001</text><text y="91%" font-size="30px" opacity="0.6"
            fill="#fff" font-family="Arial Black, Arial" font-weight="800" text-anchor="middle" x="50%">OCTOBER 4,
            2022</text>
        <ellipse style="mix-blend-mode:soft-light" cx="373.2" cy="644.9" rx="99" ry="12.6" />
        <rect style="fill:#21130a" x="380.5" y="584.9" width="8.7" height="59.7" rx="3.6" />
        <path style="fill:#21130a"
            d="M397 641.1l-7.6-8.1a1.1 1.1 0 0 0-0.8-0.3h-6a14.6 14.6 0 0 0-6.6 1.9l-9.6 6.1c-2 1.2-1 3.9 1.5 4h27.2C398 644.7 398.9 643.1 397 641.1Z" />
        <rect style="fill:#21130a" x="361" y="584.9" width="8.7" height="59.7" rx="3.6" />
        <path style="fill:#21130a"
            d="M377.5 641.1l-7.7-8.1a1.1 1.1 0 0 0-0.7-0.3h-6a14.6 14.6 0 0 0-6.7 1.9l-9.6 6.1c-2 1.2-0.9 3.9 1.5 4h27.2C378.5 644.7 379.3 643.1 377.5 641.1Z" />
        <g class="ci-breath">
            <path style="fill:#eb5838"
                d="M313.8 339.8c-2.7-8.2-3.4-16.8-0.7-25s8.7-15.3 16.7-18.7A17.7 17.7 0 0 1 340 294.8a10.5 10.5 0 0 1 7.8 6.1c3.4-3.8 8.4-6.4 13.5-6.2s10.2 3.5 11.6 8.4A20.5 20.5 0 0 1 385.8 299.8c4.5 0.5 8.9 3.1 10.9 7.2 2.7 5.4 1 11.8-1.2 17.4a16.7 16.7 0 0 1-3.7 6.2A12.8 12.8 0 0 1 385.8 333.4c-7.1 1.6-14.5-0.5-21.1-3.5s-12.9-6.9-19.8-9-15-2.3-21 1.9S314.7 337.9 313.8 339.8" />
            <path style="fill:#f69222"
                d="M314.2 334.6l-20.7 7.1a1 1 0 0 0 0 2l20.8 5.1a1.1 1.1 0 0 0 1.3-1l-0.1-12.2A1 1 0 0 0 314.2 334.6Z" />
            <path style="fill:#eb5838"
                d="M313.3 348.2c4.8 4.6 7.3 11.9 7 18.5a35 35 0 0 1-1.4 7.8c-1.2 4.3-2.9 8.6-6.1 11.6-4.6 4.3-11.4 5.2-17.6 4.6-3.7-0.4-7.7-1.5-9.9-4.5-2.1-2.8-2.1-6.7-1.7-10.2s1.1-7 3.4-9.6c2.7-3.1 7-4.1 10.8-5.6 6.3-2.5 11.2-7.4 15.5-12.6" />
            <path style="fill:#e5daaa"
                d="M482.1 492.8c-4.5 1.8 7.2-10.8 8.4-16.8S458.7 504.4 410.9 484 376.8 394.7 377.6 375.3 370.5 313.7 337.3 317.8 313.6 350.5 306.6 369.4c-9 24.3-98.1 54-66.9 143.6 20.7 59.4 73.4 81.5 106.6 89.6 4.1 7.1 11.1 11.7 19 11.7a20.4 20.4 0 0 0 9.8-2.6A20.3 20.3 0 0 0 384.9 614.3c7 0 13.2-3.6 17.4-9.2 62.1-9.9 79.3-52.9 88.3-72.9C500.8 509.6 500.1 486.4 502.8 480.2S486.6 490.9 482.1 492.8Z" />
            <path style="fill:#000;mix-blend-mode:soft-light"
                d="M400.2 522.5c-51.3-9.9-102.6-27.9-123.3-78.3-6-14.2-7-31-0.4-45.1-26.4 22.6-57.2 55.5-36.8 113.9 20.7 59.4 73.4 81.5 106.6 89.6 4.1 7.1 11.1 11.7 19 11.7a20.4 20.4 0 0 0 9.8-2.6A20.3 20.3 0 0 0 384.9 614.3c7 0 13.2-3.6 17.4-9.2 62.1-9.9 79.3-52.9 88.3-72.9a110.4 110.4 0 0 0 7.2-22.7C469.9 526.5 433.6 528.1 400.2 522.5Z" />
            <path style="fill:#000;mix-blend-mode:soft-light"
                d="M407.5 585a167.2 167.2 0 0 1-63.9-4.7L342.6 580.1c-16.2-4.5-29.7-11.7-44.1-19.8-30-16.7-54.6-44.2-65.2-77.6a113.3 113.3 0 0 0 6.4 30.3c20.7 59.4 73.4 81.5 106.6 89.6 4.1 7.1 11.1 11.7 19 11.7a20.4 20.4 0 0 0 9.8-2.6A20.3 20.3 0 0 0 384.9 614.3c6.9 0 13.2-3.6 17.4-9.2 40.5-6.5 61.9-27 74.3-46.1A154.6 154.6 0 0 1 407.5 585Z" />
            <path style="fill:#fff"
                d="M335.9 348.1a21.4 21.4 0 0 1 10.1 2.4 13 13 0 1 0-19.9-0.2A21.6 21.6 0 0 1 335.9 348.1Z" />
            <path style="fill:#000"
                d="M331.2 348.6a23.1 23.1 0 0 1 4.6-0.5 23.3 23.3 0 0 1 5.2 0.6 8.3 8.3 0 1 0-9.8-0.1Z" />
            <ellipse style="fill:#fff" cx="338.1" cy="338.9" rx="2.7" ry="2.7" />
            <ellipse style="fill:#e5daaa" cx="335.9" cy="359.6" rx="16.7" ry="11.7" />
            <path style="fill:#e5daaa"
                d="M359.7 475.7c17.5 7 67.6-14.2 83.4-24.5a60.4 60.4 0 0 0 26.9-46.8 1 1 0 0 1 0.7-0.9c3-1 6.2 3.3 6.3 6.5a10.1 10.1 0 0 0 0.9 4.2c3.7 7.3 10.4 2.2 10.8-2.8 0.3-3.8-1.5-7.5-2.7-11.2S484.8 390.2 487.9 389.5c5.7-0.4 9.9 5.1 12.7 10.1 17 29.8 27.4 66.3 15.3 98.5-12.7 33.7-51.2 55.4-86.6 48.9-7.3-1.3-14.6-3.8-20.4-8.5C400.7 531.8 382.2 519.8 375.9 509.9c-11.1-17.4-15.3-16.2-16.2-34.2" />
            <path style="fill:#000;mix-blend-mode:soft-light"
                d="M359.7 475.7c17.5 7 67.6-14.2 83.4-24.5a60.4 60.4 0 0 0 26.9-46.8 1 1 0 0 1 0.7-0.9c3-1 6.2 3.3 6.3 6.5a10.1 10.1 0 0 0 0.9 4.2c3.7 7.3 10.4 2.2 10.8-2.8 0.3-3.8-1.5-7.5-2.7-11.2S484.8 390.2 487.9 389.5c5.7-0.4 9.9 5.1 12.7 10.1 17 29.8 27.4 66.3 15.3 98.5-12.7 33.7-51.2 55.4-86.6 48.9-7.3-1.3-14.6-3.8-20.4-8.5C400.7 531.8 382.2 519.8 375.9 509.9c-11.1-17.4-15.3-16.2-16.2-34.2" />
        </g>
        <g class="ci-wing">
            <path style="fill:#e5daaa"
                d="M375 571.1c5.1 0.4 9.1 8.4 7.4 13.2s-7.1 7.6-12.2 7.7-10-1.9-14.5-4.4c-18.6-10.1-32.4-27.5-41.2-46.7s-12.8-40.3-15.2-61.3c-0.7-6.6-1.3-13.3-0.7-19.9a31.1 31.1 0 0 1 3.2-11.6c3.2-6 9.2-10.3 15.6-12.7s13.3-3.3 20.1-4c11.2-1.1 22.6-1.8 33.6 0.3 13.5 2.6 25.9 9.2 38.6 14.5 27.3 11.4 58 17.3 86.6 9.5 2.9-0.8 6-1.8 9-1.3 7 1 10.9 8.8 11.4 15.9 0.8 11.4-4.6 22.8-12.9 30.7s-19.1 12.7-30.3 15.1q9-1.3 18.1-2c3.3-0.2 7-0.3 9.5 1.9 2.3 2.1 2.9 5.6 1.9 8.6s-3 5.4-5.1 7.6c-9.6 9.5-22.8 14.8-36.2 16.3s-27-0.8-39.8-5l13.9 9.3a13.5 13.5 0 0 1 4.5 4.1c1.9 3.2 0.8 7.5-1.8 10.2s-6.2 4.1-9.7 5.2c-17.4 4.9-35.9 2-53.8-1" />
            <path style="fill:#ccc;mix-blend-mode:soft-light"
                d="M516.7 470.3c-0.5-7-4.4-14.9-11.4-15.9-3-0.4-6.1 0.5-9 1.3a103.2 103.2 0 0 1-24 3.5c-13.9 28.8-38.5 51.7-72.1 57.8a90.8 90.8 0 0 1-101.1-61c-0.2 1.2-0.4 2.4-0.5 3.7-0.7 6.6-0.1 13.3 0.7 19.9 2.4 21 6.4 42.1 15.2 61.3s22.7 36.6 41.2 46.7c4.5 2.4 9.4 4.5 14.5 4.4s10.4-2.9 12.2-7.8c1.5-4.1-1.3-10.7-5.4-12.6l-2-0.4 0-0.2a5.5 5.5 0 0 1 2 0.6c17.2 2.9 35 5.4 51.8 0.7 3.6-1 7.2-2.4 9.8-5.2s3.7-7.1 1.7-10.3a13.5 13.5 0 0 0-4.5-4l-13.9-9.3c12.8 4.2 26.4 6.4 39.8 5s26.6-6.8 36.2-16.3c2.2-2.2 4.3-4.7 5.2-7.6s0.4-6.6-2-8.6c-2.5-2.2-6.1-2.1-9.4-1.9q-9.1 0.7-18.2 2c11.2-2.4 22.1-7.2 30.4-15.2S517.4 481.7 516.7 470.3Z" />
            <path style="fill:#ccc;mix-blend-mode:soft-light"
                d="M511.9 458.1C501.4 473.6 491 489.2 476.7 501.8c-28.8 23.4-63.9 36.9-100.8 36.8a147.4 147.4 0 0 1-68.6-17.1 149.8 149.8 0 0 0 7.2 19.4c8.8 19.2 22.7 36.6 41.2 46.7 4.5 2.4 9.4 4.5 14.5 4.4s10.4-2.9 12.2-7.7c1.5-4.1-1.3-10.7-5.4-12.7l-1.9-0.3 0-0.3a5.5 5.5 0 0 1 1.9 0.6c17.2 2.9 35 5.4 51.8 0.7 3.6-1 7.2-2.4 9.8-5.2s3.7-7.1 1.7-10.3a13.5 13.5 0 0 0-4.5-4l-13.9-9.3c12.8 4.2 26.4 6.4 39.8 5s26.6-6.8 36.2-16.3c2.2-2.2 4.3-4.7 5.2-7.6s0.4-6.6-2-8.6c-2.5-2.2-6.1-2.1-9.4-1.9q-9.1 0.7-18.2 2c11.2-2.4 22.1-7.2 30.4-15.1S517.4 481.7 516.7 470.3A20.8 20.8 0 0 0 511.9 458.1Z" />
        </g>
        <!-- <rect style="fill:#5bb2e4" x="377.1" y="621.5" width="15.6" height="9" rx="1.8" />
        <rect style="fill:#705ed6" x="377.1" y="625.1" width="15.6" height="5.4" rx="1.8" />
        <rect style="fill:#2241c4" x="377.1" y="624.3" width="15.6" height="3.2" rx="0" />
        <rect style="fill:#fff" y="932" width="118" height="118" rx="37.5" />
        <rect style="fill:#a55529" x="36.28" y="963.98" width="54.44" height="19.21" rx="9.61" />
        <rect style="fill:#843b17" x="36.28" y="983.19" width="54.44" height="19.21" rx="9.61" />
        <rect style="fill:gold" x="36.28" y="983.19" width="7.69" height="20.49" rx="3.84" />
        <rect style="fill:gold" x="83.03" y="983.19" width="7.69" height="20.49" rx="3.84" />
        <rect style="fill:#000;mix-blend-mode:soft-light" x="36.28" y="983.19" width="7.69" height="20.49" rx="3.84" />
        <rect style="fill:#000;mix-blend-mode:soft-light" x="83.03" y="983.19" width="7.69" height="20.49" rx="3.84" />
        <path style="fill:gold"
            d="M90.61,980.24a3.8,3.8,0,0,0,.11-.89V966.54a3.85,3.85,0,0,0-7.69,0v12.81H70.14a4,4,0,0,0-3.93-3.2H60.79a4,4,0,0,0-3.93,3.2H44V966.54a3.85,3.85,0,0,0-7.69,0v12.81a3.8,3.8,0,0,0,.11.89A3.84,3.84,0,0,0,38.84,987h18a4,4,0,0,0,3.93,3.21h5.42A4,4,0,0,0,70.14,987h18a3.84,3.84,0,0,0,2.45-6.79Z" />
        <ellipse style="fill:#000" cx="63.45" cy="981.34" rx="1.94" ry="1.96" /> -->
        <path style="fill:#000"
            d="M60.87,986.07l1.92-4.68a.72.72,0,0,1,1.33,0L66,986.07a.72.72,0,0,1-.66,1H61.53A.72.72,0,0,1,60.87,986.07Z" />
    </g>
</svg>